<?xml version="1.0" encoding="utf-8"?>
<!-- Generator: Adobe Illustrator 16.0.0, SVG Export Plug-In . SVG Version: 6.00 Build 0)  -->
<!DOCTYPE svg PUBLIC "-//W3C//DTD SVG 1.1//EN" "http://www.w3.org/Graphics/SVG/1.1/DTD/svg11.dtd">
<svg version="1.1" id="Layer_1" xmlns="http://www.w3.org/2000/svg" xmlns:xlink="http://www.w3.org/1999/xlink" x="0px" y="0px"
	 width="128px" height="128px" viewBox="0 0 128 128" enable-background="new 0 0 128 128" xml:space="preserve">
<g>
	<g>
		<polygon fill="#282D33" points="104.906,50.273 101.233,48.683 106.632,36.225 121.186,36.225 121.186,40.227 109.26,40.227 		"/>
	</g>
	<g>
		<rect x="112.712" y="27.269" fill="#282D33" width="8.474" height="4.002"/>
	</g>
	<g>
		<polygon fill="#282D33" points="64.303,26.259 60.631,24.667 66.03,12.213 80.582,12.213 80.582,16.215 68.657,16.215 		"/>
	</g>
	<g>
		<rect x="72.108" y="3.256" fill="#282D33" width="8.474" height="4.003"/>
	</g>
	<g>
		<polygon fill="#282D33" points="16.278,63.545 11.926,53.5 0,53.5 0,49.498 14.554,49.498 19.95,61.953 		"/>
	</g>
	<g>
		<rect y="40.539" fill="#282D33" width="8.473" height="4.003"/>
	</g>
	<g>
		<path fill="#282D33" d="M62.092,124.744H41.399L27.621,89.368l27.725-71.196l24.12,61.957L62.092,124.744z M44.135,120.741h15.22
			l15.816-40.614L55.346,29.204L31.917,89.368L44.135,120.741z"/>
	</g>
	<g>
		<path fill="#282D33" d="M18.144,124.744H0.925L23.31,67.256l8.606,22.112L18.144,124.744z M6.779,120.741h8.627l12.216-31.373
			L23.31,78.29L6.779,120.741z"/>
	</g>
	<g>
		<path fill="#282D33" d="M45.694,124.744H13.849l15.92-40.891L45.694,124.744z M19.701,120.741H39.84L29.77,94.884L19.701,120.741z
			"/>
	</g>
	<g>
		<path fill="#282D33" d="M128,124.744H92.542L75.171,80.128l17.727-45.529L128,124.744z M95.278,120.741h26.868L92.897,45.629
			L79.466,80.128L95.278,120.741z"/>
	</g>
	<g>
		<path fill="#282D33" d="M96.837,124.744h-39.04L77.321,74.62L96.837,124.744z M63.65,120.741h27.333L77.317,85.641L63.65,120.741z
			"/>
	</g>
</g>
</svg>
